<svg id="Layer_1" data-name="Layer 1" xmlns="http://www.w3.org/2000/svg" viewBox="0 0 20.71 25"><defs><style>.cls-1{fill:#ee733a;}</style></defs><title>Vector Smart Object1</title><path class="cls-1" d="M17.68,3A10.36,10.36,0,0,0,3,17.68H3L10.36,25l7.32-7.32A10.36,10.36,0,0,0,17.68,3Zm-5.8,1.83c1.14-.16,1.37-.43,1.42-.54v0h0c0,.14-.08,2.9-2.65,1.83C10.67,6.11,10.5,5.06,11.88,4.86ZM9.71,4.3a.15.15,0,0,1,.21,0,2.42,2.42,0,0,1,.38,1.91.15.15,0,0,1-.14.12h0A.15.15,0,0,1,10,6.17a2.14,2.14,0,0,0-.33-1.66A.15.15,0,0,1,9.71,4.3Zm4.47,8.5L12.1,14.38l-.88.49H10.7l-1.26.31-.33-.07-.46-.27.19-.36-1.55-.95L5.93,12l-.18-2L6.82,8.46,7.7,8.1l0-.1L9.43,6.71l2.32-.1,1.78.72L14.7,9,15,10.86Z"/></svg>