<svg id="Layer_1" data-name="Layer 1" xmlns="http://www.w3.org/2000/svg" xmlns:xlink="http://www.w3.org/1999/xlink" viewBox="0 0 25 25"><defs><style>.cls-1{fill:#fff;}.cls-2{fill:url(#linear-gradient);}.cls-3{fill:url(#linear-gradient-2);}.cls-4{fill:url(#linear-gradient-3);}.cls-5{fill:url(#linear-gradient-4);}.cls-6{fill:url(#linear-gradient-5);}.cls-7{fill:url(#linear-gradient-6);}</style><linearGradient id="linear-gradient" x1="0.01" y1="15.67" x2="25" y2="15.67" gradientUnits="userSpaceOnUse"><stop offset="0" stop-color="#e83a4f"/><stop offset="0.5" stop-color="#ee7642"/><stop offset="1" stop-color="#fdd28d"/></linearGradient><linearGradient id="linear-gradient-2" x1="0.01" y1="15.7" x2="25" y2="15.7" xlink:href="#linear-gradient"/><linearGradient id="linear-gradient-3" x1="0.01" y1="16.49" x2="25" y2="16.49" xlink:href="#linear-gradient"/><linearGradient id="linear-gradient-4" x1="0.01" y1="8.2" x2="25" y2="8.2" xlink:href="#linear-gradient"/><linearGradient id="linear-gradient-5" x1="0" y1="12.5" x2="25" y2="12.5" xlink:href="#linear-gradient"/><linearGradient id="linear-gradient-6" x1="0.01" y1="16.46" x2="25" y2="16.46" xlink:href="#linear-gradient"/></defs><title>Logos Redes Sociais</title><circle class="cls-1" cx="12.5" cy="12.5" r="11.22"/><polygon class="cls-2" points="6.57 13.42 7.56 13.42 7.56 18.79 8.5 18.79 8.5 13.42 9.51 13.42 9.51 12.54 6.57 12.54 6.57 13.42"/><path class="cls-3" d="M14.41,17.46c0,.42-.12.63-.37.63a.6.6,0,0,1-.42-.21V15a.61.61,0,0,1,.42-.2c.24,0,.37.21.37.63Zm.09-3.38a1.14,1.14,0,0,0-.87.5v-2h-.84v6.24h.84v-.45a1.15,1.15,0,0,0,.87.51.67.67,0,0,0,.67-.52,3.72,3.72,0,0,0,.09-.94V15.54a3.59,3.59,0,0,0-.09-.94A.67.67,0,0,0,14.5,14.08Z"/><path class="cls-4" d="M11.21,17.69c-.19.26-.36.39-.53.39s-.18-.07-.2-.2a2.71,2.71,0,0,1,0-.33V14.14H9.63v3.68a2.36,2.36,0,0,0,.08.69.52.52,0,0,0,.54.35,1.35,1.35,0,0,0,1-.57v.51h.84V14.14h-.84Z"/><path class="cls-5" d="M11.93,9.84c.27,0,.41-.22.41-.65v-2c0-.43-.13-.65-.41-.65s-.41.22-.41.65v2C11.53,9.62,11.66,9.84,11.93,9.84Z"/><path class="cls-6" d="M19.23,19.2a1.76,1.76,0,0,1-1.51,1.37,47,47,0,0,1-5.22.19,47,47,0,0,1-5.22-.19A1.76,1.76,0,0,1,5.77,19.2a15,15,0,0,1-.24-3.3,14.9,14.9,0,0,1,.25-3.3,1.76,1.76,0,0,1,1.51-1.37A46.94,46.94,0,0,1,12.5,11a46.94,46.94,0,0,1,5.22.19,1.76,1.76,0,0,1,1.51,1.37,15,15,0,0,1,.24,3.3A14.89,14.89,0,0,1,19.23,19.2ZM8.4,4.24l.67,2.48.64-2.48h1L9.53,8v2.56H8.59V8A15.61,15.61,0,0,0,8,6L7.4,4.24Zm2.28,3.14a1.83,1.83,0,0,1,.27-1.11,1.26,1.26,0,0,1,2,0,1.85,1.85,0,0,1,.26,1.11V9a1.84,1.84,0,0,1-.26,1.11,1.26,1.26,0,0,1-2,0A1.82,1.82,0,0,1,10.67,9Zm3.22-1.53h.85V9.31a2,2,0,0,0,0,.33c0,.13.09.2.2.2s.35-.13.54-.4V5.85h.85v4.7h-.85V10a1.37,1.37,0,0,1-1,.58.52.52,0,0,1-.55-.35,2.41,2.41,0,0,1-.08-.7ZM12.5,0A12.5,12.5,0,1,0,25,12.5,12.5,12.5,0,0,0,12.5,0Z"/><path class="cls-7" d="M17.59,15.91h-.84v-.43q0-.65.42-.65c.28,0,.42.21.42.65Zm-.41-1.83a1.2,1.2,0,0,0-1,.48,1.82,1.82,0,0,0-.26,1.1v1.63a1.8,1.8,0,0,0,.27,1.09,1.21,1.21,0,0,0,1,.48,1.16,1.16,0,0,0,1-.5,1.2,1.2,0,0,0,.2-.5c0-.09,0-.27,0-.54v-.12h-.86a5.38,5.38,0,0,1,0,.57.36.36,0,0,1-.38.34c-.29,0-.43-.21-.43-.64v-.83h1.69v-1a1.83,1.83,0,0,0-.26-1.1A1.17,1.17,0,0,0,17.18,14.08Z"/></svg>