<svg id="Layer_1" data-name="Layer 1" xmlns="http://www.w3.org/2000/svg" xmlns:xlink="http://www.w3.org/1999/xlink" viewBox="0 0 25 25"><defs><style>.cls-1{fill:#fff;}.cls-2{fill:url(#linear-gradient);}.cls-3{fill:url(#linear-gradient-2);}.cls-4{fill:url(#linear-gradient-4);}</style><linearGradient id="linear-gradient" x1="-0.29" y1="12.5" x2="25.14" y2="12.5" gradientUnits="userSpaceOnUse"><stop offset="0" stop-color="#e83a4f"/><stop offset="0.5" stop-color="#ee7642"/><stop offset="1" stop-color="#fdd28d"/></linearGradient><linearGradient id="linear-gradient-2" x1="-0.29" y1="8.24" x2="25.14" y2="8.24" xlink:href="#linear-gradient"/><linearGradient id="linear-gradient-4" x1="-0.29" y1="14.63" x2="25.14" y2="14.63" xlink:href="#linear-gradient"/></defs><title>Logos Redes Sociais</title><circle class="cls-1" cx="12.5" cy="12.5" r="11.22"/><path class="cls-2" d="M12.5,15A2.5,2.5,0,1,0,10,12.5,2.5,2.5,0,0,0,12.5,15Z"/><polygon class="cls-3" points="17.96 9.44 17.96 7.03 17.65 7.03 15.55 7.04 15.56 9.45 17.96 9.44"/><path class="cls-2" d="M19.61,11v5.82a2.75,2.75,0,0,1-2.75,2.75H8.14a2.75,2.75,0,0,1-2.75-2.75V8.14A2.75,2.75,0,0,1,8.14,5.39h8.72a2.75,2.75,0,0,1,2.75,2.75ZM12.5,0A12.5,12.5,0,1,0,25,12.5,12.51,12.51,0,0,0,12.5,0Z"/><path class="cls-4" d="M16.39,12.5A3.89,3.89,0,1,1,8.9,11H6.78v5.82a1.36,1.36,0,0,0,1.36,1.36h8.72a1.36,1.36,0,0,0,1.36-1.36V11H16.1A3.89,3.89,0,0,1,16.39,12.5Z"/></svg>